<svg
            width="301"
            height="78"
            viewBox="0 0 301 78"
            fill="none"
            xmlns="http://www.w3.org/2000/svg"
          >
            <path
              fill-rule="evenodd"
              clip-rule="evenodd"
              d="M25.9895 2.10353C39.7317 -2.62307 54.3129 0.877031 64.3764 9.98423C55.771 3.71013 44.4647 1.41833 33.5846 4.63843C31.8429 4.48183 29.9876 4.39693 28.0615 4.39693C24.9893 4.39693 22.0962 4.61243 19.5601 4.99213C21.5757 3.85493 23.7224 2.88333 25.9895 2.10353ZM18.327 13.8237C9.32423 23.0597 5.73374 36.9121 10.215 49.9412C10.3194 50.2446 10.428 50.5454 10.5397 50.8441C9.91834 55.9591 10.7837 61.9294 11.2407 65.7012C7.24244 61.6968 4.06784 56.7463 2.10354 51.0352C-2.82476 36.7068 1.19073 21.4666 11.1803 11.386C12.5955 12.3956 15.1184 13.2478 18.327 13.8237ZM26.0602 69.137C34.6947 74.3472 48.0907 74.2152 55.0429 71.824C61.9951 69.4328 61.9521 68.7994 64.8503 66.6085C61.003 70.2193 56.3481 73.0939 51.0351 74.9212C40.361 78.5926 29.1799 77.3014 20.0033 72.274C20.5935 70.8468 20.5061 69.4935 20.7541 67.7357C20.7541 67.7357 23.1445 68.9857 25.5035 69.1081L26.0602 69.137Z"
              fill="#143C62"
            />
            <path
              fill-rule="evenodd"
              clip-rule="evenodd"
              d="M30.7931 5.47503C41.654 5.47503 50.4585 7.25803 50.4585 9.45743C50.4585 11.6568 41.654 13.4398 30.7931 13.4398C19.9321 13.4398 11.1276 11.6568 11.1276 9.45743C11.1276 7.25803 19.9321 5.47503 30.7931 5.47503V5.47503ZM32.4495 7.14753V8.73533H34.6345L36.1459 7.30293C35.0065 7.22563 33.7623 7.17213 32.4495 7.14753V7.14753ZM28.8195 8.73533V7.15413C28.2222 7.16753 27.64 7.18693 27.0763 7.21193L27.9737 8.73533H28.8195V8.73533ZM22.9131 7.53333L24.9634 10.1335C21.3354 9.85873 18.8842 9.33563 18.8842 8.73533C18.8842 8.25673 20.4427 7.82713 22.9131 7.53333ZM37.6521 10.046L40.0951 7.73433C41.726 8.00863 42.7019 8.35663 42.7019 8.73533C42.7019 9.27693 40.7067 9.75573 37.6521 10.046Z"
              fill="#143C62"
            />
            <path
              fill-rule="evenodd"
              clip-rule="evenodd"
              d="M15.6549 46.4269C15.6943 46.417 15.7345 46.412 15.7752 46.412C17.1803 46.412 18.8463 52.3094 19.4964 59.584C20.137 66.7526 19.552 72.5834 18.1902 72.7519V72.7522L15.5008 73.085C15.4614 73.0948 15.4212 73.0998 15.3805 73.0998C13.9754 73.0998 12.3093 67.2025 11.6593 59.9279C11.0187 52.7592 11.6037 46.9284 12.9655 46.76V46.7596L15.6549 46.4269ZM13.1969 54.532C13.7906 54.532 14.4761 57.0171 14.7282 60.0827C14.9803 63.1482 14.7034 65.6333 14.1097 65.6333C13.5161 65.6333 12.8305 63.1482 12.5785 60.0827C12.3264 57.0171 12.6033 54.532 13.1969 54.532Z"
              fill="#143C62"
            />
            <path
              fill-rule="evenodd"
              clip-rule="evenodd"
              d="M45.0048 44.305C46.9395 44.305 49.4865 50.1507 50.1753 57.046C50.8641 63.9414 49.0364 69.294 47.5827 69.4549V69.4552C44.6461 69.7802 46.0847 69.7871 44.5834 69.7871C43.2275 69.7871 42.0294 68.3312 41.1029 65.9215C43.5775 63.9671 45.1963 61.382 45.4247 58.5467C45.738 54.6565 43.3579 51.2376 39.5059 49.2729C42.1816 48.6098 43.8702 47.6065 43.8702 46.4608V44.3965C44.3157 44.3289 44.4592 44.305 45.0048 44.305V44.305Z"
              fill="#143C62"
            />
            <path
              fill-rule="evenodd"
              clip-rule="evenodd"
              d="M38.5539 49.5392C42.4764 51.4026 44.9092 54.6916 44.5926 58.4391C44.1018 64.2491 37.1907 68.959 29.1563 68.959C25.9241 68.959 23.0031 68.1963 20.6972 66.9069C20.7811 64.8128 20.7142 62.2942 20.4721 59.584C20.2129 56.6832 19.792 54.0019 19.2907 51.8257C20.1791 51.0877 21.1955 50.432 22.3116 49.8786V49.3936C24.4972 49.936 27.2513 50.2807 30.2442 50.3244C33.4121 50.3707 36.312 50.0719 38.5539 49.5392Z"
              fill="#143C62"
            />
            <path
              fill-rule="evenodd"
              clip-rule="evenodd"
              d="M43.1105 45.7789C43.1105 47.8952 37.3501 49.5267 30.2443 49.4228C23.1385 49.3189 17.3781 47.5191 17.3781 45.4028V40.473C17.3781 40.0023 17.6635 39.5515 18.185 39.1349C18.4844 39.2905 19.0757 39.3964 19.7563 39.3964C20.7392 39.3964 21.536 39.1755 21.536 38.903V37.6524C21.7722 37.5877 22.0166 37.5256 22.2686 37.4662V37.6608C22.2686 37.9332 23.0654 38.1541 24.0484 38.1541C24.6387 38.1541 25.1618 38.0744 25.4856 37.9517V40.5258C25.4856 40.7006 26.5498 40.8521 28.1045 40.9266C27.3777 41.0193 26.8731 41.223 26.8731 41.4594V43.2389C26.8731 43.5627 27.8197 43.8251 28.9876 43.8251C30.1554 43.8251 31.1021 43.5627 31.1021 43.2389V41.4594C31.1021 41.2585 30.7377 41.0812 30.1822 40.9756L30.2907 40.9758C32.9444 40.9758 35.0958 40.7743 35.0958 40.5258H35.0959V36.9231C35.3792 36.9575 35.6574 36.9949 35.9303 37.035V37.6385C35.9303 37.903 36.7034 38.1173 37.6572 38.1173C38.46 38.1173 39.1347 37.9655 39.3283 37.7598C39.537 37.8218 39.7383 37.8858 39.9324 37.9519C39.5917 38.0559 39.3841 38.194 39.3841 38.3456V40.1252C39.3841 40.4489 40.3309 40.7114 41.4987 40.7114C42.1446 40.7114 42.7226 40.6311 43.1105 40.5046V45.7789V45.7789ZM39.2784 42.513C39.2784 42.8367 38.3317 43.0992 37.1639 43.0992C35.996 43.0992 35.0493 42.8367 35.0493 42.513V40.7334C35.0493 40.4097 35.996 40.1472 37.1639 40.1472C38.3317 40.1472 39.2784 40.4097 39.2784 40.7334V42.513ZM23.5953 41.8558C23.5953 42.1282 22.7985 42.3491 21.8155 42.3491C20.8326 42.3491 20.0358 42.1282 20.0358 41.8558V40.358C20.0358 40.0855 20.8326 39.8646 21.8155 39.8646C22.7985 39.8646 23.5953 40.0855 23.5953 40.358V41.8558Z"
              fill="#143C62"
            />
            <path
              fill-rule="evenodd"
              clip-rule="evenodd"
              d="M28.7531 23.0194H32.1011V26.0139L32.7355 26.2286C33.4721 26.478 34.0747 27.3536 34.0747 28.1746V30.1848L32.7354 31.5503L32.1011 31.3356V31.6538H28.7531V30.2023L28.1891 30.0114C27.4526 29.7621 26.8499 28.8864 26.8499 28.0654V25.729C26.8499 24.9081 27.4526 24.4404 28.1891 24.6897L28.7531 24.8806V23.0194V23.0194Z"
              fill="#143C62"
            />
            <path
              fill-rule="evenodd"
              clip-rule="evenodd"
              d="M34.0811 22.0573C33.3088 22.2676 31.9709 22.4066 30.4496 22.4066C29.4967 22.4066 28.6159 22.352 27.9008 22.2596H27.9006L26.1195 22.4066V31.5481L28.9982 32.4997H32.9821L34.7795 30.667V22.4066L34.0813 22.0573H34.0811V22.0573ZM34.427 39.7244C34.427 39.9579 32.5673 40.1472 30.2733 40.1472C27.9792 40.1472 26.1195 39.9579 26.1195 39.7244V35.4953L22.9379 31.5129V21.9621L26.1195 17.8034V16.0867C26.1195 15.9353 26.3672 15.7941 26.7945 15.6752V15.0462C26.7945 14.6716 28.4478 14.3678 30.4874 14.3678C32.5269 14.3678 34.1802 14.6716 34.1802 15.0462V15.6971C34.5609 15.8113 34.7795 15.9445 34.7795 16.0867V18.5359L37.3874 22.4066V32.2529L34.427 35.1428V39.7244Z"
              fill="#143C62"
            />
            <path
              fill-rule="evenodd"
              clip-rule="evenodd"
              d="M21.1512 38.7412C21.1512 38.9547 20.5266 39.1279 19.7562 39.1279C18.9857 39.1279 18.3611 38.9547 18.3611 38.7412V37.5671C18.3611 37.3535 18.9857 37.1804 19.7562 37.1804C20.5266 37.1804 21.1512 37.3535 21.1512 37.5671V38.7412Z"
              fill="#143C62"
            />
            <path
              fill-rule="evenodd"
              clip-rule="evenodd"
              d="M43.1198 39.9176C43.1198 40.1658 42.394 40.367 41.4986 40.367C40.6033 40.367 39.8774 40.1658 39.8774 39.9176V38.5532C39.8774 38.305 40.6033 38.1038 41.4986 38.1038C42.394 38.1038 43.1198 38.305 43.1198 38.5532V39.9176Z"
              fill="#143C62"
            />
            <path
              fill-rule="evenodd"
              clip-rule="evenodd"
              d="M38.9596 37.4599C38.9596 37.6594 38.3765 37.821 37.6571 37.821C36.9378 37.821 36.3546 37.6594 36.3546 37.4599V36.3638C36.3546 36.1643 36.9378 36.0027 37.6571 36.0027C38.3765 36.0027 38.9596 36.1643 38.9596 36.3638V37.4599Z"
              fill="#143C62"
            />
            <path
              fill-rule="evenodd"
              clip-rule="evenodd"
              d="M25.4433 37.4989C25.4433 37.7124 24.8187 37.8856 24.0483 37.8856C23.2778 37.8856 22.6532 37.7124 22.6532 37.4989V36.3248C22.6532 36.1112 23.2778 35.9381 24.0483 35.9381C24.8187 35.9381 25.4433 36.1112 25.4433 36.3248V37.4989Z"
              fill="#143C62"
            />
            <path
              fill-rule="evenodd"
              clip-rule="evenodd"
              d="M64.1709 14.5111C66.3714 12.4367 71.4169 14.798 75.4403 19.7855C79.4642 24.7722 80.9424 30.497 78.742 32.5713C76.5418 34.6455 71.4962 32.2843 67.4728 27.2969C63.4492 22.3098 61.9707 16.5854 64.1709 14.5111ZM66.4052 16.556C68.0347 15.0199 71.7708 16.7684 74.7501 20.4616C77.7297 24.1542 78.8243 28.3934 77.195 29.9293C75.5657 31.4653 71.8296 29.7168 68.8502 26.0237C65.8709 22.3308 64.7761 18.092 66.4052 16.556V16.556Z"
              fill="#143C62"
            />
            <path
              fill-rule="evenodd"
              clip-rule="evenodd"
              d="M61.1663 18.012L57.7381 20.7649V22.165L51.8553 27.5395L50.8385 30.4039L43.5469 37.3498C44.3658 37.4392 44.1572 38.1038 44.2408 38.9359V42.5229C44.3122 43.4863 43.9992 42.912 44.9981 42.8287C48.5148 43.1129 50.4378 50.5895 50.9107 52.7349L62.3885 43.4677L64.7831 42.7005L71.4397 36.9952H73.2441L75.4936 34.9011C72.6313 34.4071 68.9568 31.9634 65.8744 28.2209C62.9688 24.6935 61.2959 20.8712 61.1663 18.012V18.012Z"
              fill="#143C62"
            />
            <path
              d="M97.2084 45.0762L84.9658 17.7994L90.5684 17.1463L96.3247 30.7078C96.5616 31.2457 96.7601 31.7835 96.9074 32.3214C97.0611 32.8592 97.1763 33.3971 97.266 33.9349C97.4004 33.2434 97.5477 32.6287 97.7078 32.0845C97.8615 31.5402 98.0343 31.0536 98.22 30.631L103.867 17.1463L109.284 17.7994L97.2084 45.0762V45.0762Z"
              fill="#143C62"
            />
            <path
              d="M115.489 33.5892H121.418L118.447 26.5587L115.489 33.5892ZM104.809 43.9684L118.485 17.031L132.278 44.0069L126.669 44.8841L123.48 38.0841H113.421L110.309 44.8841L104.809 43.9684V43.9684Z"
              fill="#143C62"
            />
            <path
              d="M132.815 17.7994L138.04 17.4536V39.3135H147.683L146.454 44.3078H132.815V17.7994Z"
              fill="#143C62"
            />
            <path
              d="M155.623 45.0762L143.38 17.7994L148.983 17.1463L154.739 30.7078C154.976 31.2457 155.175 31.7835 155.322 32.3214C155.476 32.8592 155.591 33.3971 155.681 33.9349C155.815 33.2434 155.962 32.6287 156.122 32.0845C156.276 31.5402 156.449 31.0536 156.635 30.631L162.282 17.1463L167.699 17.7994L155.623 45.0762V45.0762Z"
              fill="#143C62"
            />
            <path
              d="M168.358 17.7994L173.622 17.3768V34.2743C173.622 36.24 173.98 37.6615 174.704 38.5387C175.421 39.4159 176.573 39.8513 178.168 39.8513C179.756 39.8513 180.902 39.4159 181.619 38.5387C182.33 37.6615 182.688 36.24 182.688 34.2743V17.7994L187.952 17.3768V34.6713C187.952 37.9048 187.094 40.4084 185.378 42.182C183.668 43.9556 181.26 44.8457 178.155 44.8457C175.037 44.8457 172.629 43.9556 170.92 42.182C169.21 40.4084 168.358 37.9048 168.358 34.6713V17.7994V17.7994Z"
              fill="#143C62"
            />
            <path
              d="M196.448 44.692V22.7937H189.226L190.57 17.7994H208.204V22.7937H201.712V44.3078L196.448 44.692Z"
              fill="#143C62"
            />
            <path
              d="M210.17 17.7994L215.433 17.3768V34.2743C215.433 36.24 215.792 37.6615 216.515 38.5387C217.233 39.4159 218.385 39.8513 219.979 39.8513C221.567 39.8513 222.713 39.4159 223.431 38.5387C224.141 37.6615 224.5 36.24 224.5 34.2743V17.7994L229.763 17.3768V34.6713C229.763 37.9048 228.905 40.4084 227.189 42.182C225.48 43.9556 223.072 44.8457 219.967 44.8457C216.848 44.8457 214.441 43.9556 212.731 42.182C211.022 40.4084 210.17 37.9048 210.17 34.6713V17.7994V17.7994Z"
              fill="#143C62"
            />
            <path
              d="M239.144 28.4796H241.449C242.697 28.4796 243.638 28.2299 244.266 27.7304C244.9 27.2246 245.214 26.4754 245.214 25.4702C245.214 24.4969 244.919 23.7542 244.324 23.2483C243.728 22.7425 242.857 22.4864 241.711 22.4864H239.144V28.4796ZM239.144 39.4671H241.788C243.363 39.4671 244.509 39.2174 245.22 38.718C245.931 38.2185 246.289 37.4182 246.289 36.3169C246.289 35.0939 245.867 34.1719 245.022 33.5572C244.176 32.9361 242.915 32.6287 241.225 32.6287H239.144V39.4671V39.4671ZM233.919 44.3078V17.7994H241.558C244.464 17.7994 246.648 18.3692 248.121 19.5154C249.587 20.6615 250.323 22.3519 250.323 24.593C250.323 25.88 250.016 26.9941 249.401 27.9353C248.793 28.8766 247.884 29.6321 246.686 30.2084C248.281 30.695 249.523 31.5402 250.394 32.7504C251.271 33.9541 251.706 35.4268 251.706 37.1621C251.706 39.4735 250.912 41.2472 249.324 42.4701C247.736 43.6931 245.444 44.3078 242.441 44.3078H233.919Z"
              fill="#143C62"
            />
            <path
              d="M259.038 31.0408C259.038 33.6596 259.851 35.8302 261.471 37.559C263.091 39.2943 265.121 40.1587 267.56 40.1587C270.006 40.1587 272.042 39.2943 273.662 37.559C275.282 35.8302 276.095 33.6596 276.095 31.0408C276.095 28.454 275.282 26.2962 273.649 24.5545C272.017 22.8193 269.987 21.9485 267.56 21.9485C265.133 21.9485 263.104 22.8129 261.477 24.5481C259.851 26.277 259.038 28.4412 259.038 31.0408ZM253.698 31.0408C253.698 29.1327 254.037 27.3398 254.722 25.6687C255.401 24.0039 256.406 22.5056 257.731 21.1802C259.044 19.8804 260.536 18.8943 262.201 18.2284C263.872 17.5561 265.658 17.2231 267.56 17.2231C269.468 17.2231 271.267 17.5625 272.951 18.2348C274.629 18.9135 276.127 19.8932 277.44 21.1802C278.753 22.4928 279.745 23.9847 280.424 25.6495C281.096 27.3206 281.435 29.1199 281.435 31.0408C281.435 32.9809 281.096 34.7865 280.424 36.4577C279.745 38.1225 278.753 39.6144 277.44 40.927C276.127 42.214 274.629 43.1937 272.951 43.8724C271.267 44.5447 269.468 44.8841 267.56 44.8841C265.658 44.8841 263.872 44.5447 262.201 43.8724C260.536 43.1937 259.044 42.214 257.731 40.927C256.406 39.6016 255.401 38.1033 254.722 36.4385C254.037 34.7673 253.698 32.9681 253.698 31.0408Z"
              fill="#143C62"
            />
            <path
              d="M283.087 40.6965L286.737 36.97C287.595 38.0137 288.408 38.7628 289.164 39.211C289.919 39.6656 290.726 39.8897 291.59 39.8897C292.621 39.8897 293.447 39.6016 294.049 39.0317C294.658 38.4619 294.958 37.6871 294.958 36.6946C294.958 35.382 293.646 34.2359 291.027 33.2562C290.7 33.1346 290.451 33.0385 290.278 32.9745C287.826 32.0397 286.097 30.9832 285.079 29.8178C284.061 28.6461 283.548 27.1478 283.548 25.3229C283.548 22.9858 284.361 21.0393 285.994 19.4834C287.627 17.9274 289.682 17.1463 292.154 17.1463C293.832 17.1463 295.33 17.4536 296.649 18.0747C297.968 18.6958 299.133 19.6434 300.145 20.9176L296.687 24.4841C295.951 23.6709 295.221 23.069 294.497 22.6849C293.767 22.2943 293.012 22.1022 292.231 22.1022C291.277 22.1022 290.508 22.3711 289.926 22.909C289.337 23.4468 289.042 24.1512 289.042 25.0284C289.042 26.2513 290.278 27.295 292.749 28.1594C293.62 28.4604 294.312 28.7101 294.811 28.9086C296.706 29.6449 298.134 30.6694 299.095 31.9756C300.049 33.2818 300.529 34.8698 300.529 36.7459C300.529 39.147 299.709 41.1191 298.064 42.6558C296.418 44.1925 294.299 44.9609 291.693 44.9609C289.868 44.9609 288.248 44.6087 286.827 43.9108C285.412 43.2129 284.163 42.1436 283.087 40.6965V40.6965Z"
              fill="#143C62"
            />
            <path
              d="M92.9772 58.3637C92.5018 60.4144 91.4091 61.4398 89.699 61.4398C88.6701 61.4398 87.8416 61.069 87.2137 60.3275C86.5857 59.586 86.2717 58.6085 86.2717 57.3952C86.2717 56.2456 86.5555 55.2983 87.1232 54.5533C87.7476 53.7373 88.6098 53.3293 89.7096 53.3293C90.4334 53.3293 91.0667 53.5439 91.6095 53.9732C92.1523 54.4025 92.555 55.0252 92.8176 55.8412H91.7745C91.3558 54.7555 90.6534 54.2127 89.667 54.2127C88.9504 54.2127 88.3756 54.5072 87.9428 55.0961C87.5099 55.6851 87.2935 56.4692 87.2935 57.4484C87.2935 58.3637 87.5152 59.1106 87.9587 59.6889C88.4022 60.2672 88.9823 60.5563 89.699 60.5563C90.8556 60.5563 91.6077 59.8255 91.9554 58.3637H92.9772V58.3637Z"
              fill="#143C62"
            />
            <path
              d="M101.343 57.4484C101.343 58.6405 100.997 59.6037 100.305 60.3381C99.6135 61.0726 98.6999 61.4398 97.5646 61.4398C96.4577 61.4398 95.5618 61.0655 94.8771 60.3169C94.1923 59.5682 93.85 58.5908 93.85 57.3845C93.85 56.2208 94.1622 55.2664 94.7866 54.5214C95.4678 53.7266 96.3974 53.3293 97.5753 53.3293C98.7744 53.3293 99.7182 53.7408 100.407 54.5639C101.031 55.3161 101.343 56.2776 101.343 57.4484V57.4484ZM100.332 57.3526C100.332 56.4443 100.087 55.6957 99.5976 55.1068C99.1079 54.5178 98.4516 54.2233 97.6285 54.2233C96.7344 54.2233 96.039 54.532 95.5423 55.1493C95.0882 55.717 94.8611 56.4621 94.8611 57.3845C94.8611 58.3424 95.1095 59.1106 95.6062 59.6889C96.1029 60.2672 96.7663 60.5563 97.5965 60.5563C98.4906 60.5563 99.1825 60.2335 99.6721 59.5878C100.112 59.0059 100.332 58.2608 100.332 57.3526V57.3526Z"
              fill="#143C62"
            />
            <path
              d="M109.826 61.2056H108.804V54.9471L106.686 61.2056H105.665L103.546 54.9152V61.2056H102.525V53.4463H103.94L106.177 60.0579L108.414 53.4463H109.826V61.2056Z"
              fill="#143C62"
            />
            <path
              d="M124.919 61.2056H123.716C123.631 60.9785 123.567 60.7373 123.525 60.4818C123.475 60.198 123.464 59.7971 123.493 59.2791C123.464 58.3424 123.063 57.8741 122.29 57.8741H119.682V61.2056H118.682V53.4463H122.237C123.131 53.4463 123.766 53.6486 124.142 54.053C124.461 54.4007 124.621 54.9294 124.621 55.6389C124.621 56.313 124.284 56.8914 123.61 57.3739C123.965 57.6151 124.195 57.8209 124.302 57.9912C124.387 58.126 124.444 58.3531 124.472 58.6724C124.479 58.9988 124.507 59.5381 124.557 60.2902C124.585 60.5599 124.706 60.7799 124.919 60.9502V61.2056V61.2056ZM123.62 55.5112C123.62 55.1422 123.496 54.8531 123.248 54.6438C123 54.4344 122.677 54.3298 122.279 54.3298H119.682V56.9907H122.29C123.177 56.9907 123.62 56.4975 123.62 55.5112V55.5112Z"
              fill="#143C62"
            />
            <path
              d="M132.593 58.3637C132.118 60.4144 131.025 61.4398 129.315 61.4398C128.286 61.4398 127.457 61.069 126.83 60.3275C126.202 59.586 125.888 58.6085 125.888 57.3952C125.888 56.2456 126.171 55.2983 126.739 54.5533C127.363 53.7373 128.226 53.3293 129.325 53.3293C130.049 53.3293 130.683 53.5439 131.225 53.9732C131.768 54.4025 132.171 55.0252 132.433 55.8412H131.39C130.972 54.7555 130.269 54.2127 129.283 54.2127C128.566 54.2127 127.991 54.5072 127.559 55.0961C127.126 55.6851 126.909 56.4692 126.909 57.4484C126.909 58.3637 127.131 59.1106 127.575 59.6889C128.018 60.2672 128.598 60.5563 129.315 60.5563C130.471 60.5563 131.224 59.8255 131.571 58.3637H132.593V58.3637Z"
              fill="#143C62"
            />
            <path
              d="M135.126 61.2056H134.126V53.4463H135.126V61.2056Z"
              fill="#143C62"
            />
            <path
              d="M143.918 57.4484C143.918 58.6405 143.572 59.6037 142.88 60.3381C142.188 61.0726 141.275 61.4398 140.139 61.4398C139.033 61.4398 138.137 61.0655 137.452 60.3169C136.767 59.5682 136.425 58.5908 136.425 57.3845C136.425 56.2208 136.737 55.2664 137.361 54.5214C138.043 53.7266 138.972 53.3293 140.15 53.3293C141.349 53.3293 142.293 53.7408 142.981 54.5639C143.606 55.3161 143.918 56.2776 143.918 57.4484V57.4484ZM142.907 57.3526C142.907 56.4443 142.662 55.6957 142.172 55.1068C141.683 54.5178 141.026 54.2233 140.203 54.2233C139.309 54.2233 138.614 54.532 138.117 55.1493C137.663 55.717 137.436 56.4621 137.436 57.3845C137.436 58.3424 137.684 59.1106 138.181 59.6889C138.678 60.2672 139.341 60.5563 140.171 60.5563C141.065 60.5563 141.757 60.2335 142.247 59.5878C142.687 59.0059 142.907 58.2608 142.907 57.3526V57.3526Z"
              fill="#143C62"
            />
            <path
              d="M154.359 57.2568C154.359 58.4347 154.051 59.4104 153.433 60.1838C152.88 60.865 152.266 61.2056 151.592 61.2056H148.207V53.4463H151.358C152.089 53.4463 152.738 53.7302 153.306 54.2978C154.008 55.0003 154.359 55.9866 154.359 57.2568V57.2568ZM153.359 57.2568C153.359 56.313 153.16 55.5822 152.763 55.0642C152.38 54.5746 151.858 54.3298 151.198 54.3298H149.208V60.3222H151.464C152.06 60.3222 152.529 60.0348 152.869 59.46C153.196 58.9066 153.359 58.1721 153.359 57.2568V57.2568Z"
              fill="#143C62"
            />
            <path
              d="M161.469 61.2056H155.903V53.4463H161.288V54.3298H156.903V56.7778H161.118V57.6612H156.903V60.3222H161.469V61.2056Z"
              fill="#143C62"
            />
            <path
              d="M171.57 55.6496C171.57 56.345 171.357 56.9055 170.932 57.3313C170.548 57.7216 170.077 57.9167 169.516 57.9167H166.972V61.2056H165.972V53.4463H169.356C170.052 53.4463 170.602 53.6592 171.006 54.085C171.382 54.4894 171.57 55.011 171.57 55.6496ZM170.559 55.6496C170.559 55.2948 170.438 54.9861 170.197 54.7236C169.956 54.461 169.672 54.3298 169.346 54.3298H166.972V57.0333H169.473C169.722 57.0333 169.956 56.9162 170.176 56.682C170.431 56.4053 170.559 56.0611 170.559 55.6496V55.6496Z"
              fill="#143C62"
            />
            <path
              d="M179.329 61.2056H178.127C178.042 60.9785 177.978 60.7373 177.935 60.4818C177.885 60.198 177.875 59.7971 177.903 59.2791C177.875 58.3424 177.474 57.8741 176.7 57.8741H174.093V61.2056H173.092V53.4463H176.647C177.541 53.4463 178.176 53.6486 178.552 54.053C178.872 54.4007 179.031 54.9294 179.031 55.6389C179.031 56.313 178.694 56.8914 178.02 57.3739C178.375 57.6151 178.606 57.8209 178.712 57.9912C178.797 58.126 178.854 58.3531 178.882 58.6724C178.889 58.9988 178.918 59.5381 178.968 60.2902C178.996 60.5599 179.117 60.7799 179.329 60.9502V61.2056V61.2056ZM178.031 55.5112C178.031 55.1422 177.907 54.8531 177.658 54.6438C177.41 54.4344 177.087 54.3298 176.69 54.3298H174.093V56.9907H176.7C177.587 56.9907 178.031 56.4975 178.031 55.5112V55.5112Z"
              fill="#143C62"
            />
            <path
              d="M187.685 57.4484C187.685 58.6405 187.339 59.6037 186.647 60.3381C185.955 61.0726 185.042 61.4398 183.906 61.4398C182.799 61.4398 181.903 61.0655 181.219 60.3169C180.534 59.5682 180.192 58.5908 180.192 57.3845C180.192 56.2208 180.504 55.2664 181.128 54.5214C181.809 53.7266 182.739 53.3293 183.917 53.3293C185.116 53.3293 186.06 53.7408 186.748 54.5639C187.373 55.3161 187.685 56.2776 187.685 57.4484V57.4484ZM186.674 57.3526C186.674 56.4443 186.429 55.6957 185.939 55.1068C185.45 54.5178 184.793 54.2233 183.97 54.2233C183.076 54.2233 182.381 54.532 181.884 55.1493C181.43 55.717 181.203 56.4621 181.203 57.3845C181.203 58.3424 181.451 59.1106 181.948 59.6889C182.445 60.2672 183.108 60.5563 183.938 60.5563C184.832 60.5563 185.524 60.2335 186.014 59.5878C186.454 59.0059 186.674 58.2608 186.674 57.3526V57.3526Z"
              fill="#143C62"
            />
            <path
              d="M195.167 57.2568C195.167 58.4347 194.859 59.4104 194.241 60.1838C193.688 60.865 193.074 61.2056 192.4 61.2056H189.015V53.4463H192.166C192.897 53.4463 193.546 53.7302 194.114 54.2978C194.816 55.0003 195.167 55.9866 195.167 57.2568V57.2568ZM194.167 57.2568C194.167 56.313 193.968 55.5822 193.571 55.0642C193.188 54.5746 192.666 54.3298 192.006 54.3298H190.016V60.3222H192.272C192.868 60.3222 193.337 60.0348 193.677 59.46C194.004 58.9066 194.167 58.1721 194.167 57.2568V57.2568Z"
              fill="#143C62"
            />
            <path
              d="M202.618 59.1301C202.618 59.6836 202.398 60.1803 201.958 60.6202C201.412 61.1666 200.645 61.4398 199.659 61.4398C198.658 61.4398 197.881 61.1666 197.328 60.6202C196.881 60.1803 196.657 59.6836 196.657 59.1301V53.4463H197.658V59.0981C197.658 59.4884 197.851 59.8379 198.238 60.1466C198.625 60.4552 199.098 60.6096 199.659 60.6096C200.191 60.6096 200.651 60.4605 201.037 60.1625C201.424 59.8645 201.617 59.4849 201.617 59.0236V53.4463H202.618V59.1301V59.1301Z"
              fill="#143C62"
            />
            <path
              d="M209.749 54.3298H207.216V61.2056H206.216V54.3298H203.661V53.4463H209.749V54.3298Z"
              fill="#143C62"
            />
            <path
              d="M217.838 57.4484C217.838 58.6405 217.493 59.6037 216.801 60.3381C216.109 61.0726 215.195 61.4398 214.06 61.4398C212.953 61.4398 212.057 61.0655 211.372 60.3169C210.688 59.5682 210.345 58.5908 210.345 57.3845C210.345 56.2208 210.658 55.2664 211.282 54.5214C211.963 53.7266 212.893 53.3293 214.071 53.3293C215.27 53.3293 216.214 53.7408 216.902 54.5639C217.526 55.3161 217.838 56.2776 217.838 57.4484V57.4484ZM216.827 57.3526C216.827 56.4443 216.583 55.6957 216.093 55.1068C215.603 54.5178 214.947 54.2233 214.124 54.2233C213.23 54.2233 212.534 54.532 212.038 55.1493C211.584 55.717 211.356 56.4621 211.356 57.3845C211.356 58.3424 211.605 59.1106 212.102 59.6889C212.598 60.2672 213.262 60.5563 214.092 60.5563C214.986 60.5563 215.678 60.2335 216.167 59.5878C216.607 59.0059 216.827 58.2608 216.827 57.3526V57.3526Z"
              fill="#143C62"
            />
            <path
              d="M224.831 59.1088C224.831 59.8042 224.551 60.3665 223.991 60.7958C223.43 61.2251 222.685 61.4398 221.755 61.4398C220.776 61.4398 220.031 61.2056 219.52 60.7373C219.009 60.269 218.747 59.6055 218.733 58.7469H219.648C219.698 59.3855 219.905 59.8503 220.271 60.1412C220.636 60.4322 221.202 60.5776 221.968 60.5776C222.515 60.5776 222.956 60.4428 223.293 60.1732C223.63 59.9035 223.799 59.5576 223.799 59.1319C223.799 58.5784 223.419 58.2041 222.66 58.0054L220.553 57.4501C219.51 57.1734 218.988 56.5596 218.988 55.6088C218.988 54.9258 219.227 54.3759 219.706 53.9572C220.185 53.5386 220.815 53.3293 221.596 53.3293C223.554 53.3293 224.551 54.124 224.587 55.7135H223.639C223.611 55.1813 223.409 54.7804 223.033 54.5107C222.699 54.2695 222.249 54.1488 221.681 54.1488C221.191 54.1488 220.778 54.2766 220.441 54.532C220.104 54.7874 219.935 55.1068 219.935 55.4899C219.935 56.0008 220.276 56.345 220.957 56.5224L223.384 57.161C223.802 57.2745 224.147 57.5051 224.416 57.8528C224.693 58.2218 224.831 58.6405 224.831 59.1088V59.1088Z"
              fill="#143C62"
            />
            <path
              d="M235.134 61.2056H234.134V57.6612H230.164V61.2056H229.163V53.4463H230.164V56.7778H234.134V53.4463H235.134V61.2056Z"
              fill="#143C62"
            />
            <path
              d="M238.03 61.2056H237.029V53.4463H238.03V61.2056Z"
              fill="#143C62"
            />
            <path
              d="M246.023 57.2568C246.023 58.4347 245.714 59.4104 245.097 60.1838C244.543 60.865 243.93 61.2056 243.256 61.2056H239.871V53.4463H243.021C243.752 53.4463 244.402 53.7302 244.969 54.2978C245.672 55.0003 246.023 55.9866 246.023 57.2568V57.2568ZM245.022 57.2568C245.022 56.313 244.824 55.5822 244.426 55.0642C244.043 54.5746 243.522 54.3298 242.862 54.3298H240.871V60.3222H243.128C243.724 60.3222 244.192 60.0348 244.533 59.46C244.859 58.9066 245.022 58.1721 245.022 57.2568V57.2568Z"
              fill="#143C62"
            />
            <path
              d="M253.835 61.2056H252.633C252.548 60.9785 252.484 60.7373 252.441 60.4818C252.391 60.198 252.381 59.7971 252.409 59.2791C252.381 58.3424 251.98 57.8741 251.206 57.8741H248.599V61.2056H247.598V53.4463H251.153C252.047 53.4463 252.682 53.6486 253.058 54.053C253.378 54.4007 253.537 54.9294 253.537 55.6389C253.537 56.313 253.2 56.8914 252.526 57.3739C252.881 57.6151 253.112 57.8209 253.218 57.9912C253.303 58.126 253.36 58.3531 253.388 58.6724C253.395 58.9988 253.424 59.5381 253.474 60.2902C253.502 60.5599 253.623 60.7799 253.835 60.9502V61.2056V61.2056ZM252.537 55.5112C252.537 55.1422 252.413 54.8531 252.164 54.6438C251.916 54.4344 251.593 54.3298 251.196 54.3298H248.599V56.9907H251.206C252.093 56.9907 252.537 56.4975 252.537 55.5112V55.5112Z"
              fill="#143C62"
            />
            <path
              d="M268.258 59.1301C268.258 59.6836 268.038 60.1803 267.598 60.6202C267.051 61.1666 266.285 61.4398 265.299 61.4398C264.298 61.4398 263.521 61.1666 262.968 60.6202C262.521 60.1803 262.297 59.6836 262.297 59.1301V53.4463H263.298V59.0981C263.298 59.4884 263.491 59.8379 263.878 60.1466C264.264 60.4552 264.738 60.6096 265.299 60.6096C265.831 60.6096 266.29 60.4605 266.677 60.1625C267.064 59.8645 267.257 59.4849 267.257 59.0236V53.4463H268.258V59.1301V59.1301Z"
              fill="#143C62"
            />
            <path
              d="M274.75 61.2056H269.929V53.4463H270.929V60.3222H274.75V61.2056Z"
              fill="#143C62"
            />
            <path
              d="M277.06 61.2056H276.06V53.4463H277.06V61.2056Z"
              fill="#143C62"
            />
            <path
              d="M285.17 58.3637C284.695 60.4144 283.602 61.4398 281.892 61.4398C280.863 61.4398 280.035 61.069 279.407 60.3275C278.779 59.586 278.465 58.6085 278.465 57.3952C278.465 56.2456 278.749 55.2983 279.316 54.5533C279.941 53.7373 280.803 53.3293 281.903 53.3293C282.627 53.3293 283.26 53.5439 283.803 53.9732C284.346 54.4025 284.748 55.0252 285.011 55.8412H283.968C283.549 54.7555 282.847 54.2127 281.86 54.2127C281.144 54.2127 280.569 54.5072 280.136 55.0961C279.703 55.6851 279.487 56.4692 279.487 57.4484C279.487 58.3637 279.708 59.1106 280.152 59.6889C280.595 60.2672 281.176 60.5563 281.892 60.5563C283.049 60.5563 283.801 59.8255 284.149 58.3637H285.17V58.3637Z"
              fill="#143C62"
            />
            <path
              d="M293.536 57.4484C293.536 58.6405 293.191 59.6037 292.499 60.3381C291.807 61.0726 290.893 61.4398 289.758 61.4398C288.651 61.4398 287.755 61.0655 287.07 60.3169C286.386 59.5682 286.043 58.5908 286.043 57.3845C286.043 56.2208 286.356 55.2664 286.98 54.5214C287.661 53.7266 288.591 53.3293 289.769 53.3293C290.968 53.3293 291.912 53.7408 292.6 54.5639C293.224 55.3161 293.536 56.2776 293.536 57.4484V57.4484ZM292.525 57.3526C292.525 56.4443 292.281 55.6957 291.791 55.1068C291.301 54.5178 290.645 54.2233 289.822 54.2233C288.928 54.2233 288.232 54.532 287.736 55.1493C287.282 55.717 287.054 56.4621 287.054 57.3845C287.054 58.3424 287.303 59.1106 287.8 59.6889C288.296 60.2672 288.96 60.5563 289.79 60.5563C290.684 60.5563 291.376 60.2335 291.865 59.5878C292.305 59.0059 292.525 58.2608 292.525 57.3526V57.3526Z"
              fill="#143C62"
            />
            <path
              d="M300.529 59.1088C300.529 59.8042 300.249 60.3665 299.689 60.7958C299.128 61.2251 298.383 61.4398 297.453 61.4398C296.474 61.4398 295.729 61.2056 295.218 60.7373C294.707 60.269 294.445 59.6055 294.431 58.7469H295.346C295.396 59.3855 295.603 59.8503 295.969 60.1412C296.334 60.4322 296.9 60.5776 297.666 60.5776C298.213 60.5776 298.654 60.4428 298.991 60.1732C299.328 59.9035 299.497 59.5576 299.497 59.1319C299.497 58.5784 299.117 58.2041 298.358 58.0054L296.251 57.4501C295.208 57.1734 294.686 56.5596 294.686 55.6088C294.686 54.9258 294.925 54.3759 295.404 53.9572C295.883 53.5386 296.513 53.3293 297.294 53.3293C299.252 53.3293 300.249 54.124 300.285 55.7135H299.337C299.309 55.1813 299.107 54.7804 298.731 54.5107C298.397 54.2695 297.947 54.1488 297.379 54.1488C296.889 54.1488 296.476 54.2766 296.139 54.532C295.802 54.7874 295.633 55.1068 295.633 55.4899C295.633 56.0008 295.974 56.345 296.655 56.5224L299.082 57.161C299.5 57.2745 299.845 57.5051 300.114 57.8528C300.391 58.2218 300.529 58.6405 300.529 59.1088V59.1088Z"
              fill="#143C62"
            />
            <path
              d="M115.797 51.2112L114.233 52.7864H113.573L114.605 51.2112H115.797ZM117.117 61.2056H111.55V53.4463H116.936V54.3298H112.551V56.7778H116.766V57.6612H112.551V60.3222H117.117V61.2056V61.2056Z"
              fill="#143C62"
            />
            <path
              d="M259.274 51.2112L257.71 52.7864H257.05L258.082 51.2112H259.274V51.2112ZM261.243 61.2056H260.138L259.345 58.8853H256.37L255.538 61.2056H254.474L257.295 53.4463H258.519L261.243 61.2056V61.2056ZM259.044 58.0551L257.901 54.6438L256.638 58.0551H259.044Z"
              fill="#143C62"
            />
          </svg>